<?xml version="1.0" encoding="UTF-8" standalone="no"?>
<!-- Created with Inkscape (http://www.inkscape.org/) -->

<svg
   version="1.1"
   id="svg1"
   width="755.90533"
   height="491.33868"
   viewBox="0 0 755.90533 491.33868"
   sodipodi:docname="LOGO.ai"
   xmlns:inkscape="http://www.inkscape.org/namespaces/inkscape"
   xmlns:sodipodi="http://sodipodi.sourceforge.net/DTD/sodipodi-0.dtd"
   xmlns:xlink="http://www.w3.org/1999/xlink"
   xmlns="http://www.w3.org/2000/svg"
   xmlns:svg="http://www.w3.org/2000/svg">

  <g
     id="layer-MC0"
     inkscape:groupmode="layer"
     inkscape:label="Layer 1">
    <path
       id="path1"
       d="M 0,0 H 69.228 V -192.332 H 153.85 V 0 h 27.747 l 24.406,76.918 H 0 Z"
       style="fill:#d61c2e;fill-opacity:1;fill-rule:nonzero;stroke:none"
       transform="matrix(1.3333333,0,0,-1.3333333,18.901867,116.93733)" />
    <path
       id="path2"
       d="m 0,0 h 24.408 v -192.456 h 84.621 V 76.669 H 24.408 Z"
       style="fill:#d61c2e;fill-opacity:1;fill-rule:nonzero;stroke:none"
       transform="matrix(1.3333333,0,0,-1.3333333,294.038,116.772)" />
    <path
       id="path3"
       d="m 0,0 h -125.091 v 76.925 h 90.478 c 9.04,0 12.975,11.429 5.852,16.994 l -53.22,41.583 c -56.058,43.8 -25.085,133.746 46.054,133.746 H 67.232 V 192.323 H -1.313 c -9.041,0 -12.976,-11.429 -5.853,-16.995 L 46.055,133.746 C 102.112,89.945 71.14,0 0,0"
       style="fill:#d61c2e;fill-opacity:1;fill-rule:nonzero;stroke:none"
       transform="matrix(1.3333333,0,0,-1.3333333,636.97227,373.3788)"
       clip-path="url(#clipPath4)" />
    <path
       id="path5"
       d="m 0,0 h -16.02 v 2.369 l 0.484,0.025 c 1.715,0.119 2.742,0.41 3.082,0.876 0.339,0.462 0.509,1.829 0.509,4.091 v 22.974 c 0,2.263 -0.166,3.623 -0.496,4.079 -0.332,0.456 -1.363,0.75 -3.095,0.886 l -0.484,0.026 v 2.367 H 0 V 35.326 L -0.458,35.3 c -1.75,-0.136 -2.79,-0.43 -3.12,-0.886 -0.332,-0.456 -0.497,-1.816 -0.497,-4.079 V 7.361 c 0,-2.262 0.17,-3.629 0.51,-4.091 0.339,-0.466 1.375,-0.757 3.107,-0.876 L 0,2.369 Z"
       style="fill:#414142;fill-opacity:1;fill-rule:nonzero;stroke:none"
       transform="matrix(1.3333333,0,0,-1.3333333,40.258,475.70293)"
       clip-path="url(#clipPath6)" />
    <path
       id="path7"
       d="M 0,0 -20.91,28.538 V 7.896 c 0,-2.263 0.17,-3.629 0.51,-4.092 0.339,-0.466 1.375,-0.757 3.107,-0.876 l 0.459,-0.025 V 0.534 h -11.869 v 2.369 l 0.484,0.025 c 1.715,0.119 2.742,0.41 3.081,0.876 0.34,0.463 0.51,1.829 0.51,4.092 v 22.973 c 0,2.263 -0.166,3.623 -0.497,4.079 -0.332,0.456 -1.362,0.75 -3.094,0.886 l -0.484,0.026 v 2.368 h 9.445 L 1.503,9.769 v 21.1 c 0,2.263 -0.165,3.623 -0.494,4.079 -0.329,0.456 -1.362,0.75 -3.101,0.886 l -0.48,0.026 v 2.368 H 9.296 V 35.86 L 8.835,35.834 C 7.109,35.698 6.075,35.404 5.734,34.948 5.393,34.492 5.221,33.132 5.221,30.869 V 0 Z"
       style="fill:#414142;fill-opacity:1;fill-rule:nonzero;stroke:none"
       transform="matrix(1.3333333,0,0,-1.3333333,82.039867,476.4152)"
       clip-path="url(#clipPath8)" />
    <path
       id="path9"
       d="M 0,0 V 7.871 H 3.77 L 3.795,7.258 C 3.914,5.023 4.347,3.602 5.094,2.988 6.639,1.728 8.473,1.097 10.595,1.097 c 2.004,0 3.629,0.618 4.878,1.857 1.247,1.24 1.872,2.862 1.872,4.866 0,1.579 -0.366,2.853 -1.095,3.821 -0.731,0.951 -2.14,2.004 -4.229,3.158 L 9.5,16.174 c -6.299,3.481 -9.449,7.267 -9.449,11.359 0,3.209 1.137,5.785 3.413,7.729 2.275,1.945 5.297,2.918 9.067,2.918 2.954,0 6.333,-0.553 10.136,-1.658 v -7.589 h -3.769 l -0.025,0.459 c -0.136,2.377 -0.486,3.853 -1.047,4.431 -1.259,1.24 -2.842,1.861 -4.747,1.861 -1.617,0 -2.987,-0.583 -4.111,-1.747 -1.122,-1.163 -1.684,-2.593 -1.684,-4.291 0,-1.291 0.369,-2.381 1.109,-3.272 0.737,-0.893 2.143,-1.931 4.214,-3.12 l 2.547,-1.477 c 3.719,-2.139 6.265,-4.041 7.641,-5.705 1.358,-1.68 2.037,-3.728 2.037,-6.138 0,-3.448 -1.287,-6.199 -3.857,-8.253 -2.574,-2.054 -6.033,-3.08 -10.38,-3.08 C 7.522,-1.399 3.99,-0.934 0,0"
       style="fill:#414142;fill-opacity:1;fill-rule:nonzero;stroke:none"
       transform="matrix(1.3333333,0,0,-1.3333333,101.036,475.09227)"
       clip-path="url(#clipPath10)" />
    <path
       id="path11"
       d="m 0,0 h 16.02 v -2.367 l -0.46,-0.027 c -1.744,-0.135 -2.782,-0.429 -3.115,-0.885 -0.334,-0.456 -0.5,-1.817 -0.5,-4.079 v -16.301 c 0,-4.524 0.638,-7.736 1.916,-9.635 1.277,-1.896 3.441,-2.845 6.49,-2.845 3.247,0 5.607,1.004 7.082,3.012 1.474,2.007 2.212,5.231 2.212,9.672 v 16.097 c 0,2.262 -0.165,3.623 -0.495,4.079 -0.332,0.456 -1.373,0.75 -3.119,0.885 L 25.57,-2.367 V 0 h 11.844 v -2.367 l -0.458,-0.027 c -1.715,-0.135 -2.734,-0.429 -3.057,-0.885 -0.322,-0.456 -0.485,-1.817 -0.485,-4.079 v -15.486 c 0,-5.417 -1.14,-9.399 -3.422,-11.946 -2.283,-2.564 -5.839,-3.845 -10.672,-3.845 -10.163,0 -15.245,5.094 -15.245,15.281 v 15.816 c 0,2.275 -0.17,3.65 -0.509,4.126 -0.34,0.474 -1.367,0.764 -3.082,0.865 L 0,-2.495 Z"
       style="fill:#414142;fill-opacity:1;fill-rule:nonzero;stroke:none"
       transform="matrix(1.3333333,0,0,-1.3333333,137.48653,425.4452)"
       clip-path="url(#clipPath12)" />
    <path
       id="path13"
       d="m 0,0 h 1.399 c 2.666,0 4.782,0.788 6.344,2.367 1.562,1.579 2.343,3.736 2.343,6.47 0,4.89 -2.411,7.335 -7.233,7.335 H 0 Z m 0,-2.496 v -9.169 c 0,-2.248 0.146,-3.616 0.444,-4.106 0.298,-0.491 1.152,-0.777 2.558,-0.862 l 0.461,-0.024 v -2.369 h -15.077 v 2.369 l 0.483,0.024 c 1.714,0.119 2.743,0.41 3.083,0.876 0.339,0.463 0.509,1.829 0.509,4.092 v 22.974 c 0,2.262 -0.167,3.623 -0.497,4.079 -0.333,0.456 -1.363,0.75 -3.095,0.885 l -0.483,0.027 v 2.367 h 10.976 l 4.66,0.129 2.318,0.051 c 7.777,0 11.665,-3.18 11.665,-9.537 0,-2.596 -0.604,-4.79 -1.807,-6.588 -1.205,-1.798 -3.022,-3.188 -5.448,-4.173 l 7.36,-10.265 c 1.817,-2.445 2.966,-3.854 3.449,-4.228 0.485,-0.373 1.441,-0.604 2.867,-0.689 l 0.485,-0.024 v -2.369 H 13.676 L 3.233,-2.496 Z"
       style="fill:#414142;fill-opacity:1;fill-rule:nonzero;stroke:none"
       transform="matrix(1.3333333,0,0,-1.3333333,206.3016,450.33453)"
       clip-path="url(#clipPath14)" />
    <path
       id="path15"
       d="M 0,0 H 13.53 L 6.653,14.644 Z m -1.187,-2.522 -1.916,-4.041 c -0.926,-2.009 -1.387,-3.377 -1.387,-4.11 0,-0.56 0.536,-0.839 1.606,-0.839 0.153,-0.016 0.475,-0.044 0.967,-0.078 l 0.483,-0.024 v -2.369 h -10.059 v 2.369 l 0.483,0.024 c 1.358,0.085 2.212,0.306 2.561,0.662 0.347,0.357 1.106,1.81 2.28,4.357 L 7.888,24.043 h 2.598 l 14.16,-30.641 c 1.243,-2.53 2.033,-3.964 2.383,-4.303 0.349,-0.339 1.237,-0.57 2.662,-0.689 l 0.33,-0.024 v -2.369 H 14.309 v 2.369 l 0.484,0.024 c 2.14,0.136 3.226,0.469 3.26,0.995 0.035,0.509 -0.451,1.861 -1.45,4.053 l -1.89,4.02 z"
       style="fill:#414142;fill-opacity:1;fill-rule:nonzero;stroke:none"
       transform="matrix(1.3333333,0,0,-1.3333333,255.28987,457.0584)"
       clip-path="url(#clipPath16)" />
    <path
       id="path17"
       d="M 0,0 -20.909,28.538 V 7.896 c 0,-2.263 0.17,-3.629 0.509,-4.092 0.34,-0.466 1.376,-0.757 3.108,-0.876 l 0.458,-0.025 V 0.534 h -11.868 v 2.369 l 0.482,0.025 c 1.718,0.119 2.744,0.41 3.083,0.876 0.34,0.463 0.51,1.829 0.51,4.092 v 22.973 c 0,2.263 -0.168,3.623 -0.498,4.079 -0.33,0.456 -1.363,0.75 -3.095,0.886 l -0.482,0.026 v 2.368 h 9.445 L 1.504,9.769 v 21.1 c 0,2.263 -0.165,3.623 -0.495,4.079 -0.328,0.456 -1.361,0.75 -3.1,0.886 l -0.48,0.026 v 2.368 H 9.297 V 35.86 L 8.836,35.834 C 7.112,35.698 6.076,35.404 5.734,34.948 5.395,34.492 5.222,33.132 5.222,30.869 V 0 Z"
       style="fill:#414142;fill-opacity:1;fill-rule:nonzero;stroke:none"
       transform="matrix(1.3333333,0,0,-1.3333333,335.5712,476.4152)"
       clip-path="url(#clipPath18)" />
    <path
       id="path19"
       d="m 0,0 c -3.871,-1.596 -8.058,-2.394 -12.555,-2.394 -6.35,0 -11.3,1.74 -14.849,5.22 -3.549,3.481 -5.322,8.347 -5.322,14.595 0,6.282 1.732,11.146 5.196,14.593 3.464,3.447 8.354,5.172 14.67,5.172 3.837,0 7.903,-0.553 12.198,-1.658 v -7.766 h -3.769 v 0.482 c 0,2.259 -0.367,3.694 -1.096,4.306 -1.701,1.427 -4.107,2.139 -7.217,2.139 -3.706,0 -6.573,-1.491 -8.596,-4.47 -2.023,-2.982 -3.032,-7.204 -3.032,-12.671 0,-5.587 1.133,-9.78 3.398,-12.582 2.268,-2.802 5.659,-4.201 10.176,-4.201 3.123,0 6.724,0.933 10.798,2.801 z"
       style="fill:#414142;fill-opacity:1;fill-rule:nonzero;stroke:none"
       transform="matrix(1.3333333,0,0,-1.3333333,397.49173,473.7668)"
       clip-path="url(#clipPath20)" />
    <path
       id="path21"
       d="m 0,0 h -28.753 v 2.369 l 0.485,0.025 c 1.712,0.119 2.741,0.41 3.081,0.876 0.338,0.462 0.509,1.829 0.509,4.091 v 22.974 c 0,2.263 -0.165,3.623 -0.495,4.079 -0.335,0.456 -1.363,0.75 -3.095,0.886 l -0.485,0.026 v 2.367 h 27.659 v -6.748 h -3.769 l -0.051,0.484 c -0.052,0.865 -0.077,1.375 -0.077,1.527 0,0.951 -0.224,1.563 -0.675,1.835 -0.451,0.272 -1.465,0.407 -3.042,0.407 H -16.81 V 20.884 h 5.249 c 2.019,0 3.178,0.052 3.474,0.153 0.299,0.1 0.466,0.883 0.5,2.348 l 0.048,0.48 h 2.676 v -8.15 h -2.676 l -0.048,0.459 c -0.037,1.341 -0.276,2.096 -0.718,2.265 -0.446,0.17 -1.531,0.254 -3.256,0.254 H -16.96 V 7.386 c 0,-2.82 0.33,-4.321 0.995,-4.507 0.494,-0.136 1.848,-0.204 4.063,-0.204 h 3.168 c 2.535,0 3.956,0.121 4.268,0.369 0.314,0.245 0.537,1.431 0.673,3.554 L -3.77,7.08 H 0 Z"
       style="fill:#414142;fill-opacity:1;fill-rule:nonzero;stroke:none"
       transform="matrix(1.3333333,0,0,-1.3333333,440.97227,475.70293)"
       clip-path="url(#clipPath22)" />
    <path
       id="path23"
       d="m 0,0 v -10.697 c 0,-1.919 0.229,-3.157 0.687,-3.706 0.459,-0.553 1.477,-0.827 3.056,-0.827 2.021,0 3.643,0.645 4.865,1.935 1.223,1.29 1.834,2.995 1.834,5.118 0,2.445 -0.82,4.42 -2.46,5.921 C 6.346,-0.752 4.211,0 1.579,0 Z m 0,2.495 h 1.553 c 2.529,0 4.425,0.634 5.68,1.9 1.257,1.269 1.885,3.167 1.885,5.703 0,2.347 -0.628,4.109 -1.885,5.281 C 5.978,16.553 4.092,17.14 1.579,17.14 H 0 Z M 7.971,1.501 c 3.514,-0.696 6.146,-1.892 7.895,-3.59 1.749,-1.698 2.624,-3.888 2.624,-6.571 0,-3.124 -1.035,-5.472 -3.106,-7.043 -2.071,-1.569 -5.189,-2.356 -9.349,-2.356 h -17.649 v 2.37 l 0.483,0.024 c 1.715,0.119 2.743,0.41 3.083,0.876 0.339,0.463 0.51,1.829 0.51,4.092 v 22.973 c 0,2.263 -0.168,3.623 -0.498,4.079 -0.332,0.457 -1.363,0.75 -3.095,0.886 l -0.483,0.027 v 2.367 H 5.96 c 3.65,0 6.387,-0.697 8.213,-2.088 1.824,-1.393 2.738,-3.488 2.738,-6.29 0,-2.173 -0.744,-4.075 -2.228,-5.705 C 13.195,3.922 10.959,2.571 7.971,1.501"
       style="fill:#d61c2e;fill-opacity:1;fill-rule:nonzero;stroke:none"
       transform="matrix(1.3333333,0,0,-1.3333333,469.65587,451.6248)"
       clip-path="url(#clipPath24)" />
    <path
       id="path25"
       d="m 0,0 h 1.4 c 2.665,0 4.781,0.788 6.342,2.367 1.563,1.579 2.344,3.736 2.344,6.47 0,4.89 -2.411,7.335 -7.233,7.335 H 0 Z m 0,-2.496 v -9.169 c 0,-2.248 0.148,-3.616 0.444,-4.106 0.298,-0.491 1.153,-0.777 2.561,-0.862 l 0.459,-0.024 v -2.369 h -15.077 v 2.369 l 0.482,0.024 c 1.715,0.119 2.743,0.41 3.083,0.876 0.34,0.463 0.509,1.829 0.509,4.092 v 22.974 c 0,2.262 -0.167,3.623 -0.497,4.079 -0.332,0.456 -1.363,0.75 -3.095,0.885 l -0.482,0.027 v 2.367 h 10.975 l 4.662,0.129 2.317,0.051 c 7.776,0 11.665,-3.18 11.665,-9.537 0,-2.596 -0.602,-4.79 -1.808,-6.588 -1.205,-1.798 -3.019,-3.188 -5.447,-4.173 l 7.358,-10.265 c 1.818,-2.445 2.967,-3.854 3.453,-4.228 0.482,-0.373 1.438,-0.604 2.864,-0.689 l 0.485,-0.024 v -2.369 H 13.676 L 3.233,-2.496 Z"
       style="fill:#d61c2e;fill-opacity:1;fill-rule:nonzero;stroke:none"
       transform="matrix(1.3333333,0,0,-1.3333333,511.98787,450.33453)"
       clip-path="url(#clipPath26)" />
    <path
       id="path27"
       d="m 0,0 c 3.604,0 6.304,1.448 8.096,4.344 1.793,2.898 2.69,7.243 2.69,13.038 0,5.744 -0.897,10.047 -2.69,12.909 -1.792,2.862 -4.492,4.296 -8.096,4.296 -3.586,0 -6.28,-1.434 -8.083,-4.296 -1.802,-2.862 -2.702,-7.165 -2.702,-12.909 0,-5.795 0.9,-10.14 2.702,-13.038 C -6.28,1.448 -3.586,0 0,0 m -0.013,-2.496 c -5.925,0 -10.595,1.768 -14.008,5.309 -3.413,3.54 -5.118,8.367 -5.118,14.479 0,6.13 1.705,10.962 5.118,14.493 3.413,3.531 8.083,5.298 14.008,5.298 5.909,0 10.571,-1.767 13.984,-5.298 3.413,-3.531 5.118,-8.363 5.118,-14.493 0,-6.112 -1.705,-10.939 -5.118,-14.479 -3.413,-3.541 -8.075,-5.309 -13.984,-5.309"
       style="fill:#d61c2e;fill-opacity:1;fill-rule:nonzero;stroke:none"
       transform="matrix(1.3333333,0,0,-1.3333333,571.21307,473.63013)"
       clip-path="url(#clipPath28)" />
    <path
       id="path29"
       d="m 0,0 v -10.772 c 0,-2.855 0.278,-4.37 0.839,-4.536 0.933,-0.255 1.656,-0.398 2.166,-0.432 l 0.458,-0.025 v -2.369 h -15.077 v 2.369 l 0.482,0.025 c 1.715,0.119 2.743,0.41 3.083,0.876 0.34,0.463 0.51,1.829 0.51,4.092 v 22.973 c 0,2.263 -0.168,3.623 -0.497,4.079 -0.333,0.456 -1.364,0.75 -3.096,0.886 l -0.482,0.026 V 19.56 H 3.463 V 17.192 L 3.005,17.166 C 1.579,17.049 0.72,16.754 0.431,16.28 0.143,15.808 0,14.446 0,12.201 V 2.166 l 11.002,10.035 c 2.717,2.479 4.075,3.951 4.075,4.417 0,0.383 -0.848,0.574 -2.547,0.574 H 12.072 V 19.56 H 23.54 v -2.368 l -0.458,-0.026 c -1.613,-0.117 -2.61,-0.291 -2.991,-0.524 -0.383,-0.236 -2.12,-1.758 -5.215,-4.578 L 6.056,3.943 18.844,-10.826 c 2.226,-2.459 3.604,-3.878 4.14,-4.252 0.535,-0.373 1.507,-0.594 2.915,-0.662 l 0.459,-0.025 v -2.369 H 8.149 v 2.369 h 0.458 c 2.089,0 3.15,0.255 3.183,0.765 0.018,0.373 -0.975,1.79 -2.978,4.252 z"
       style="fill:#d61c2e;fill-opacity:1;fill-rule:nonzero;stroke:none"
       transform="matrix(1.3333333,0,0,-1.3333333,614.20787,451.52467)"
       clip-path="url(#clipPath30)" />
    <path
       id="path31"
       d="m 0,0 h -28.753 v 2.369 l 0.483,0.025 c 1.714,0.119 2.743,0.41 3.083,0.876 0.339,0.462 0.509,1.829 0.509,4.091 v 22.974 c 0,2.263 -0.168,3.623 -0.498,4.079 -0.332,0.456 -1.363,0.75 -3.094,0.886 l -0.483,0.026 v 2.367 h 27.658 v -6.748 h -3.768 l -0.051,0.484 c -0.051,0.865 -0.078,1.375 -0.078,1.527 0,0.951 -0.226,1.563 -0.674,1.835 -0.451,0.272 -1.466,0.407 -3.045,0.407 H -16.81 V 20.884 h 5.248 c 2.019,0 3.179,0.052 3.475,0.153 0.298,0.1 0.464,0.883 0.497,2.348 l 0.051,0.48 h 2.676 v -8.15 h -2.676 l -0.051,0.459 c -0.033,1.341 -0.274,2.096 -0.718,2.265 -0.444,0.17 -1.528,0.254 -3.254,0.254 h -5.4 V 7.386 c 0,-2.82 0.332,-4.321 0.996,-4.507 0.495,-0.136 1.849,-0.204 4.064,-0.204 h 3.168 c 2.532,0 3.956,0.121 4.269,0.369 0.313,0.245 0.535,1.431 0.671,3.554 L -3.77,7.08 H 0 Z"
       style="fill:#d61c2e;fill-opacity:1;fill-rule:nonzero;stroke:none"
       transform="matrix(1.3333333,0,0,-1.3333333,686.93053,475.70293)"
       clip-path="url(#clipPath32)" />
    <path
       id="path33"
       d="m 0,0 h 1.401 c 2.666,0 4.779,0.788 6.341,2.367 1.562,1.579 2.343,3.736 2.343,6.47 0,4.89 -2.411,7.335 -7.233,7.335 H 0 Z m 0,-2.496 v -9.169 c 0,-2.248 0.147,-3.616 0.446,-4.106 0.296,-0.491 1.15,-0.777 2.559,-0.862 l 0.459,-0.024 v -2.369 h -15.078 v 2.369 l 0.485,0.024 c 1.715,0.119 2.741,0.41 3.081,0.876 0.339,0.463 0.509,1.829 0.509,4.092 v 22.974 c 0,2.262 -0.165,3.623 -0.495,4.079 -0.332,0.456 -1.362,0.75 -3.095,0.885 l -0.485,0.027 v 2.367 h 10.978 l 4.66,0.129 2.319,0.051 c 7.776,0 11.665,-3.18 11.665,-9.537 0,-2.596 -0.605,-4.79 -1.808,-6.588 -1.205,-1.798 -3.021,-3.188 -5.447,-4.173 l 7.359,-10.265 c 1.817,-2.445 2.966,-3.854 3.449,-4.228 0.485,-0.373 1.441,-0.604 2.868,-0.689 l 0.481,-0.024 v -2.369 H 13.678 L 3.235,-2.496 Z"
       style="fill:#d61c2e;fill-opacity:1;fill-rule:nonzero;stroke:none"
       transform="matrix(1.3333333,0,0,-1.3333333,703.79373,450.33453)"
       clip-path="url(#clipPath34)" />
  </g>
</svg>
